<svg width="200" height="50" viewBox="0 0 200 50" fill="none" xmlns="http://www.w3.org/2000/svg">
  <!-- Fond noir propre -->
  <rect width="200" height="50" rx="8" fill="black" stroke="#404040" stroke-width="1"/>
  
  <!-- Icône - Engrenage moderne -->
  <g transform="translate(15, 12.5)">
    <!-- Engrenage principal -->
    <circle cx="12.5" cy="12.5" r="10" fill="#22c55e"/>
    <circle cx="12.5" cy="12.5" r="6" fill="black"/>
    <circle cx="12.5" cy="12.5" r="3" fill="#22c55e"/>
    
    <!-- Dents de l'engrenage -->
    <rect x="11.5" y="0" width="2" height="4" fill="#22c55e"/>
    <rect x="11.5" y="21" width="2" height="4" fill="#22c55e"/>
    <rect x="0" y="11.5" width="4" height="2" fill="#22c55e"/>
    <rect x="21" y="11.5" width="4" height="2" fill="#22c55e"/>
    
    <!-- Dents diagonales -->
    <rect x="19.5" y="3.5" width="2" height="3" fill="#22c55e" transform="rotate(45 20.5 5)"/>
    <rect x="19.5" y="18.5" width="2" height="3" fill="#22c55e" transform="rotate(45 20.5 20)"/>
    <rect x="3.5" y="3.5" width="2" height="3" fill="#22c55e" transform="rotate(-45 4.5 5)"/>
    <rect x="3.5" y="18.5" width="2" height="3" fill="#22c55e" transform="rotate(-45 4.5 20)"/>
  </g>
  
  <!-- Texte principal -->
  <text x="55" y="32" font-family="system-ui, -apple-system, sans-serif" font-size="24" font-weight="600" fill="white">
    Garage<tspan fill="#22c55e">Link</tspan>
  </text>
  
  <!-- Ligne décorative -->
  <line x1="55" y1="38" x2="155" y2="38" stroke="#404040" stroke-width="2"/>
</svg>
